<?xml version="1.0" encoding="UTF-8"?>
<svg xmlns="http://www.w3.org/2000/svg" xmlns:xlink="http://www.w3.org/1999/xlink" width="75pt" height="74.999997pt" viewBox="0 0 75 74.999997" version="1.2">
<defs>
<clipPath id="clip1">
  <path d="M 15 5 L 41 5 L 41 20 L 15 20 Z M 15 5 "/>
</clipPath>
<clipPath id="clip2">
  <path d="M 4.386719 6.914062 L 40.121094 2.539062 L 43.765625 32.316406 L 8.03125 36.691406 Z M 4.386719 6.914062 "/>
</clipPath>
<clipPath id="clip3">
  <path d="M 4.386719 6.914062 L 40.121094 2.539062 L 43.765625 32.316406 L 8.03125 36.691406 Z M 4.386719 6.914062 "/>
</clipPath>
<clipPath id="clip4">
  <path d="M 15.019531 5.613281 L 40.148438 2.535156 L 42 17.671875 L 16.871094 20.746094 Z M 15.019531 5.613281 "/>
</clipPath>
<clipPath id="clip5">
  <path d="M 15.019531 5.613281 L 40.089844 2.542969 L 41.941406 17.679688 L 16.871094 20.746094 Z M 15.019531 5.613281 "/>
</clipPath>
<clipPath id="clip6">
  <path d="M 7 30 L 9 30 L 9 33 L 7 33 Z M 7 30 "/>
</clipPath>
<clipPath id="clip7">
  <path d="M 4.386719 6.914062 L 40.121094 2.539062 L 43.765625 32.316406 L 8.03125 36.691406 Z M 4.386719 6.914062 "/>
</clipPath>
<clipPath id="clip8">
  <path d="M 4.386719 6.914062 L 40.121094 2.539062 L 43.765625 32.316406 L 8.03125 36.691406 Z M 4.386719 6.914062 "/>
</clipPath>
<clipPath id="clip9">
  <path d="M 7 34 L 9 34 L 9 37 L 7 37 Z M 7 34 "/>
</clipPath>
<clipPath id="clip10">
  <path d="M 4.386719 6.914062 L 40.121094 2.539062 L 43.765625 32.316406 L 8.03125 36.691406 Z M 4.386719 6.914062 "/>
</clipPath>
<clipPath id="clip11">
  <path d="M 4.386719 6.914062 L 40.121094 2.539062 L 43.765625 32.316406 L 8.03125 36.691406 Z M 4.386719 6.914062 "/>
</clipPath>
<clipPath id="clip12">
  <path d="M 7.816406 34.65625 L 8.292969 34.597656 L 8.542969 36.640625 L 8.066406 36.699219 Z M 7.816406 34.65625 "/>
</clipPath>
<clipPath id="clip13">
  <path d="M 7.816406 34.65625 L 8.292969 34.597656 L 8.539062 36.628906 L 8.0625 36.683594 Z M 7.816406 34.65625 "/>
</clipPath>
<clipPath id="clip14">
  <path d="M 12 20 L 14 20 L 14 22 L 12 22 Z M 12 20 "/>
</clipPath>
<clipPath id="clip15">
  <path d="M 4.386719 6.914062 L 40.121094 2.539062 L 43.765625 32.316406 L 8.03125 36.691406 Z M 4.386719 6.914062 "/>
</clipPath>
<clipPath id="clip16">
  <path d="M 4.386719 6.914062 L 40.121094 2.539062 L 43.765625 32.316406 L 8.03125 36.691406 Z M 4.386719 6.914062 "/>
</clipPath>
<clipPath id="clip17">
  <path d="M 14 17 L 17 17 L 17 19 L 14 19 Z M 14 17 "/>
</clipPath>
<clipPath id="clip18">
  <path d="M 4.386719 6.914062 L 40.121094 2.539062 L 43.765625 32.316406 L 8.03125 36.691406 Z M 4.386719 6.914062 "/>
</clipPath>
<clipPath id="clip19">
  <path d="M 4.386719 6.914062 L 40.121094 2.539062 L 43.765625 32.316406 L 8.03125 36.691406 Z M 4.386719 6.914062 "/>
</clipPath>
<clipPath id="clip20">
  <path d="M 8 26 L 10 26 L 10 29 L 8 29 Z M 8 26 "/>
</clipPath>
<clipPath id="clip21">
  <path d="M 4.386719 6.914062 L 40.121094 2.539062 L 43.765625 32.316406 L 8.03125 36.691406 Z M 4.386719 6.914062 "/>
</clipPath>
<clipPath id="clip22">
  <path d="M 4.386719 6.914062 L 40.121094 2.539062 L 43.765625 32.316406 L 8.03125 36.691406 Z M 4.386719 6.914062 "/>
</clipPath>
<clipPath id="clip23">
  <path d="M 9 23 L 12 23 L 12 26 L 9 26 Z M 9 23 "/>
</clipPath>
<clipPath id="clip24">
  <path d="M 4.386719 6.914062 L 40.121094 2.539062 L 43.765625 32.316406 L 8.03125 36.691406 Z M 4.386719 6.914062 "/>
</clipPath>
<clipPath id="clip25">
  <path d="M 4.386719 6.914062 L 40.121094 2.539062 L 43.765625 32.316406 L 8.03125 36.691406 Z M 4.386719 6.914062 "/>
</clipPath>
<clipPath id="clip26">
  <path d="M 35 23.3125 L 63.152344 23.3125 L 63.152344 51 L 35 51 Z M 35 23.3125 "/>
</clipPath>
<clipPath id="clip27">
  <path d="M 20.460938 35 L 59 35 L 59 61.285156 L 20.460938 61.285156 Z M 20.460938 35 "/>
</clipPath>
</defs>
<g id="surface1">
<path style=" stroke:none;fill-rule:nonzero;fill:rgb(92.158508%,91.369629%,91.369629%);fill-opacity:1;" d="M 39.914062 11.058594 C 38.910156 11.058594 37.90625 11.109375 36.90625 11.207031 C 35.90625 11.304688 34.914062 11.453125 33.925781 11.648438 C 32.941406 11.84375 31.96875 12.089844 31.003906 12.378906 C 30.042969 12.671875 29.097656 13.011719 28.167969 13.394531 C 27.238281 13.78125 26.332031 14.210938 25.445312 14.683594 C 24.558594 15.15625 23.695312 15.671875 22.859375 16.230469 C 22.023438 16.789062 21.21875 17.390625 20.441406 18.027344 C 19.664062 18.664062 18.921875 19.339844 18.210938 20.050781 C 17.5 20.761719 16.824219 21.503906 16.1875 22.28125 C 15.546875 23.058594 14.949219 23.867188 14.390625 24.703125 C 13.832031 25.539062 13.316406 26.398438 12.84375 27.285156 C 12.367188 28.171875 11.941406 29.078125 11.554688 30.007812 C 11.171875 30.9375 10.832031 31.882812 10.539062 32.84375 C 10.25 33.808594 10.003906 34.78125 9.808594 35.765625 C 9.613281 36.753906 9.464844 37.746094 9.367188 38.746094 C 9.269531 39.746094 9.21875 40.75 9.21875 41.757812 C 9.21875 42.761719 9.269531 43.765625 9.367188 44.765625 C 9.464844 45.765625 9.613281 46.757812 9.808594 47.746094 C 10.003906 48.730469 10.25 49.703125 10.539062 50.667969 C 10.832031 51.628906 11.171875 52.574219 11.554688 53.503906 C 11.941406 54.433594 12.367188 55.339844 12.84375 56.226562 C 13.316406 57.113281 13.832031 57.976562 14.390625 58.8125 C 14.949219 59.648438 15.546875 60.453125 16.1875 61.230469 C 16.824219 62.007812 17.5 62.75 18.210938 63.460938 C 18.921875 64.171875 19.664062 64.847656 20.441406 65.484375 C 21.21875 66.125 22.023438 66.722656 22.859375 67.28125 C 23.695312 67.839844 24.558594 68.355469 25.445312 68.828125 C 26.332031 69.300781 27.238281 69.730469 28.167969 70.117188 C 29.097656 70.5 30.042969 70.839844 31.003906 71.132812 C 31.96875 71.421875 32.941406 71.667969 33.925781 71.863281 C 34.914062 72.058594 35.90625 72.207031 36.90625 72.304688 C 37.90625 72.402344 38.910156 72.453125 39.914062 72.453125 C 40.921875 72.453125 41.925781 72.402344 42.925781 72.304688 C 43.925781 72.207031 44.917969 72.058594 45.90625 71.863281 C 46.890625 71.667969 47.863281 71.421875 48.828125 71.132812 C 49.789062 70.839844 50.734375 70.5 51.664062 70.117188 C 52.59375 69.730469 53.5 69.300781 54.386719 68.828125 C 55.273438 68.355469 56.132812 67.839844 56.96875 67.28125 C 57.804688 66.722656 58.613281 66.125 59.390625 65.484375 C 60.167969 64.847656 60.910156 64.171875 61.621094 63.460938 C 62.332031 62.75 63.007812 62.007812 63.644531 61.230469 C 64.28125 60.453125 64.882812 59.648438 65.441406 58.8125 C 66 57.976562 66.515625 57.113281 66.988281 56.226562 C 67.460938 55.339844 67.890625 54.433594 68.277344 53.503906 C 68.660156 52.574219 69 51.628906 69.292969 50.667969 C 69.582031 49.703125 69.828125 48.730469 70.023438 47.746094 C 70.21875 46.757812 70.367188 45.765625 70.464844 44.765625 C 70.5625 43.765625 70.613281 42.761719 70.613281 41.757812 C 70.613281 40.75 70.5625 39.746094 70.464844 38.746094 C 70.367188 37.746094 70.21875 36.753906 70.023438 35.765625 C 69.828125 34.78125 69.582031 33.808594 69.292969 32.84375 C 69 31.882812 68.660156 30.9375 68.277344 30.007812 C 67.890625 29.078125 67.460938 28.171875 66.988281 27.285156 C 66.515625 26.398438 66 25.539062 65.441406 24.703125 C 64.882812 23.867188 64.28125 23.058594 63.644531 22.28125 C 63.007812 21.503906 62.332031 20.761719 61.621094 20.050781 C 60.910156 19.339844 60.167969 18.664062 59.390625 18.027344 C 58.613281 17.390625 57.804688 16.789062 56.96875 16.230469 C 56.132812 15.671875 55.273438 15.15625 54.386719 14.683594 C 53.5 14.210938 52.59375 13.78125 51.664062 13.394531 C 50.734375 13.011719 49.789062 12.671875 48.828125 12.378906 C 47.863281 12.089844 46.890625 11.84375 45.90625 11.648438 C 44.917969 11.453125 43.925781 11.304688 42.925781 11.207031 C 41.925781 11.109375 40.921875 11.058594 39.914062 11.058594 Z M 39.914062 11.058594 "/>
<g clip-path="url(#clip1)" clip-rule="nonzero">
<g clip-path="url(#clip2)" clip-rule="nonzero">
<g clip-path="url(#clip3)" clip-rule="nonzero">
<g clip-path="url(#clip4)" clip-rule="nonzero">
<g clip-path="url(#clip5)" clip-rule="nonzero">
<path style=" stroke:none;fill-rule:evenodd;fill:rgb(0%,0%,0%);fill-opacity:1;" d="M 19.402344 15.59375 C 20.007812 15.660156 20.863281 15.546875 21.324219 15.335938 C 21.277344 15 21.152344 14.710938 20.867188 14.515625 C 20.109375 14.894531 19.707031 15.1875 19.402344 15.59375 Z M 19.09375 9.957031 C 19.246094 9.960938 19.367188 9.980469 19.484375 9.96875 C 20.382812 9.863281 21.285156 9.757812 22.183594 9.636719 C 23.535156 9.460938 24.882812 9.269531 26.230469 9.085938 C 26.679688 9.023438 27.136719 8.996094 27.582031 8.914062 C 29.71875 8.527344 31.867188 8.214844 34.027344 7.972656 C 35.046875 7.863281 36.0625 7.757812 37.082031 7.648438 C 36.824219 7.566406 36.566406 7.539062 36.3125 7.550781 C 35.308594 7.589844 34.304688 7.582031 33.316406 7.386719 C 32.328125 7.1875 31.324219 7.191406 30.328125 7.078125 C 29.046875 6.933594 27.757812 6.855469 26.46875 6.757812 C 25.730469 6.699219 24.992188 6.621094 24.253906 6.625 C 23.128906 6.632812 22.011719 6.527344 20.890625 6.484375 C 20.125 6.457031 19.363281 6.378906 18.601562 6.371094 C 17.929688 6.367188 17.261719 6.359375 16.597656 6.257812 C 16.484375 6.242188 16.359375 6.222656 16.289062 6.355469 C 16.292969 6.40625 16.28125 6.464844 16.304688 6.496094 C 17.234375 7.65625 18.171875 8.8125 19.09375 9.957031 Z M 18.085938 15.625 C 18.9375 15.253906 20.128906 14.582031 20.558594 14.128906 C 20.796875 13.878906 21.050781 13.773438 21.351562 13.703125 C 21.445312 13.679688 21.539062 13.660156 21.628906 13.628906 C 23.03125 13.144531 24.433594 12.667969 25.828125 12.171875 C 26.910156 11.785156 27.980469 11.375 29.082031 11.046875 C 29.285156 10.984375 29.484375 10.898438 29.6875 10.828125 C 31.671875 10.128906 33.65625 9.429688 35.644531 8.734375 C 35.980469 8.617188 36.328125 8.523438 36.667969 8.402344 C 36.765625 8.367188 36.84375 8.28125 37.035156 8.148438 C 36.242188 8.199219 35.578125 8.234375 34.914062 8.292969 C 34.105469 8.363281 33.296875 8.4375 32.492188 8.542969 C 31.589844 8.65625 30.691406 8.800781 29.796875 8.945312 C 28.96875 9.074219 28.148438 9.234375 27.320312 9.355469 C 26.089844 9.535156 24.859375 9.691406 23.625 9.851562 C 22.320312 10.019531 21.015625 10.175781 19.710938 10.34375 C 19.550781 10.363281 19.394531 10.414062 19.226562 10.453125 C 19.148438 10.679688 19.0625 10.878906 19.019531 11.089844 C 18.710938 12.570312 18.410156 14.054688 18.085938 15.625 Z M 24.007812 19.121094 C 24.308594 18.929688 24.539062 18.75 24.792969 18.628906 C 25.667969 18.214844 26.402344 17.601562 27.140625 16.980469 C 27.617188 16.582031 28.105469 16.195312 28.59375 15.808594 C 29.367188 15.203125 30.148438 14.605469 30.917969 13.992188 C 32.019531 13.109375 33.109375 12.207031 34.210938 11.320312 C 34.546875 11.050781 34.898438 10.800781 35.25 10.546875 C 35.988281 10.015625 36.730469 9.484375 37.46875 8.953125 C 37.566406 8.882812 37.671875 8.816406 37.742188 8.722656 C 37.816406 8.621094 38.007812 8.613281 37.984375 8.398438 C 37.523438 8.558594 37.074219 8.714844 36.625 8.863281 C 35.125 9.359375 33.609375 9.804688 32.136719 10.363281 C 30.546875 10.960938 28.949219 11.523438 27.34375 12.074219 C 25.578125 12.679688 23.820312 13.296875 22.058594 13.914062 C 21.859375 13.984375 21.667969 14.078125 21.453125 14.167969 C 21.535156 14.710938 21.777344 15.15625 22.015625 15.59375 C 22.527344 16.550781 23.058594 17.492188 23.589844 18.441406 C 23.703125 18.648438 23.839844 18.847656 24.007812 19.121094 Z M 40.667969 7.265625 C 39.679688 7.96875 38.726562 8.648438 37.769531 9.320312 C 36.964844 9.882812 36.136719 10.410156 35.351562 10.992188 C 33.871094 12.09375 32.367188 13.15625 31.074219 14.488281 C 30.792969 14.777344 30.441406 14.996094 30.121094 15.25 C 29.652344 15.621094 29.1875 15.996094 28.714844 16.359375 C 27.558594 17.253906 26.410156 18.152344 25.242188 19.03125 C 24.859375 19.316406 24.4375 19.542969 24.023438 19.785156 C 23.90625 19.851562 23.777344 19.796875 23.71875 19.683594 C 23.238281 18.765625 22.769531 17.84375 22.289062 16.929688 C 22.101562 16.570312 21.890625 16.222656 21.6875 15.863281 C 21.195312 15.910156 20.746094 15.949219 20.296875 16 C 19.820312 16.050781 19.347656 16.132812 18.871094 16.164062 C 18.429688 16.195312 18.003906 16.460938 17.492188 16.273438 C 17.492188 16.117188 17.464844 15.953125 17.5 15.800781 C 17.664062 15.097656 17.851562 14.398438 18.015625 13.695312 C 18.25 12.6875 18.480469 11.675781 18.691406 10.664062 C 18.726562 10.515625 18.6875 10.324219 18.621094 10.183594 C 18.515625 9.96875 18.371094 9.769531 18.21875 9.582031 C 17.53125 8.71875 16.832031 7.859375 16.132812 7 C 15.980469 6.816406 15.804688 6.652344 15.644531 6.472656 C 15.453125 6.261719 15.25 6.058594 15.132812 5.789062 C 15.25 5.5625 15.441406 5.535156 15.628906 5.566406 C 17.621094 5.867188 19.628906 5.941406 21.632812 6.042969 C 21.917969 6.058594 22.203125 6.101562 22.492188 6.109375 C 23.160156 6.128906 23.832031 6.105469 24.496094 6.152344 C 25.738281 6.234375 26.976562 6.355469 28.214844 6.457031 C 29.214844 6.542969 30.214844 6.625 31.214844 6.710938 C 32.214844 6.796875 33.214844 6.910156 34.214844 6.964844 C 35.265625 7.023438 36.316406 7.042969 37.371094 7.054688 C 38.347656 7.070312 39.328125 7.050781 40.308594 7.050781 C 40.449219 7.050781 40.605469 7.039062 40.667969 7.265625 "/>
</g>
</g>
</g>
</g>
</g>
<g clip-path="url(#clip6)" clip-rule="nonzero">
<g clip-path="url(#clip7)" clip-rule="nonzero">
<g clip-path="url(#clip8)" clip-rule="nonzero">
<path style=" stroke:none;fill-rule:evenodd;fill:rgb(0%,0%,0%);fill-opacity:1;" d="M 8.304688 31.503906 C 8.28125 31.808594 8.269531 32.121094 8.226562 32.425781 C 8.21875 32.484375 8.105469 32.546875 8.027344 32.566406 C 7.996094 32.578125 7.894531 32.488281 7.890625 32.433594 C 7.835938 31.867188 7.832031 31.296875 7.964844 30.734375 C 7.976562 30.683594 8.085938 30.601562 8.109375 30.613281 C 8.179688 30.648438 8.277344 30.726562 8.28125 30.789062 C 8.296875 31.023438 8.277344 31.261719 8.269531 31.5 C 8.28125 31.5 8.292969 31.503906 8.304688 31.503906 "/>
</g>
</g>
</g>
<g clip-path="url(#clip9)" clip-rule="nonzero">
<g clip-path="url(#clip10)" clip-rule="nonzero">
<g clip-path="url(#clip11)" clip-rule="nonzero">
<g clip-path="url(#clip12)" clip-rule="nonzero">
<g clip-path="url(#clip13)" clip-rule="nonzero">
<path style=" stroke:none;fill-rule:evenodd;fill:rgb(0%,0%,0%);fill-opacity:1;" d="M 8.128906 36.675781 C 8.085938 36.523438 8.019531 36.375 8.007812 36.222656 C 7.972656 35.769531 7.949219 35.320312 7.941406 34.867188 C 7.941406 34.800781 8.035156 34.679688 8.089844 34.679688 C 8.160156 34.675781 8.277344 34.757812 8.292969 34.824219 C 8.332031 35.007812 8.347656 35.199219 8.339844 35.386719 C 8.316406 35.8125 8.273438 36.238281 8.238281 36.664062 C 8.203125 36.667969 8.164062 36.671875 8.128906 36.675781 "/>
</g>
</g>
</g>
</g>
</g>
<g clip-path="url(#clip14)" clip-rule="nonzero">
<g clip-path="url(#clip15)" clip-rule="nonzero">
<g clip-path="url(#clip16)" clip-rule="nonzero">
<path style=" stroke:none;fill-rule:evenodd;fill:rgb(0%,0%,0%);fill-opacity:1;" d="M 13.636719 20.371094 C 13.609375 20.449219 13.605469 20.53125 13.5625 20.574219 C 13.230469 20.910156 12.894531 21.242188 12.550781 21.558594 C 12.503906 21.601562 12.382812 21.574219 12.308594 21.550781 C 12.289062 21.542969 12.277344 21.40625 12.308594 21.367188 C 12.601562 21.027344 12.898438 20.691406 13.203125 20.367188 C 13.261719 20.304688 13.371094 20.273438 13.457031 20.265625 C 13.507812 20.261719 13.566406 20.328125 13.636719 20.371094 "/>
</g>
</g>
</g>
<g clip-path="url(#clip17)" clip-rule="nonzero">
<g clip-path="url(#clip18)" clip-rule="nonzero">
<g clip-path="url(#clip19)" clip-rule="nonzero">
<path style=" stroke:none;fill-rule:evenodd;fill:rgb(0%,0%,0%);fill-opacity:1;" d="M 15.007812 18.640625 C 14.976562 18.59375 14.929688 18.542969 14.914062 18.480469 C 14.902344 18.441406 14.917969 18.375 14.945312 18.347656 C 15.277344 18.003906 15.601562 17.648438 16.027344 17.417969 C 16.070312 17.394531 16.179688 17.421875 16.214844 17.464844 C 16.246094 17.503906 16.25 17.621094 16.21875 17.652344 C 15.875 17.984375 15.523438 18.304688 15.167969 18.625 C 15.140625 18.648438 15.078125 18.636719 15.007812 18.640625 "/>
</g>
</g>
</g>
<g clip-path="url(#clip20)" clip-rule="nonzero">
<g clip-path="url(#clip21)" clip-rule="nonzero">
<g clip-path="url(#clip22)" clip-rule="nonzero">
<path style=" stroke:none;fill-rule:evenodd;fill:rgb(0%,0%,0%);fill-opacity:1;" d="M 9.363281 26.882812 C 9.394531 27.03125 9.445312 27.125 9.425781 27.195312 C 9.296875 27.632812 9.160156 28.066406 9.015625 28.5 C 8.996094 28.5625 8.941406 28.621094 8.886719 28.667969 C 8.859375 28.691406 8.796875 28.695312 8.757812 28.683594 C 8.71875 28.667969 8.6875 28.621094 8.660156 28.585938 C 8.648438 28.570312 8.644531 28.539062 8.648438 28.515625 C 8.769531 27.980469 8.859375 27.433594 9.203125 26.980469 C 9.21875 26.960938 9.246094 26.953125 9.363281 26.882812 "/>
</g>
</g>
</g>
<g clip-path="url(#clip23)" clip-rule="nonzero">
<g clip-path="url(#clip24)" clip-rule="nonzero">
<g clip-path="url(#clip25)" clip-rule="nonzero">
<path style=" stroke:none;fill-rule:evenodd;fill:rgb(0%,0%,0%);fill-opacity:1;" d="M 10.027344 25.320312 C 9.972656 25.214844 9.949219 25.191406 9.953125 25.175781 C 10.117188 24.597656 10.433594 24.101562 10.796875 23.636719 C 10.824219 23.597656 10.9375 23.585938 10.984375 23.609375 C 11.023438 23.632812 11.0625 23.746094 11.042969 23.785156 C 10.789062 24.238281 10.53125 24.6875 10.261719 25.132812 C 10.21875 25.203125 10.125 25.242188 10.027344 25.320312 "/>
</g>
</g>
</g>
<g clip-path="url(#clip26)" clip-rule="nonzero">
<path style=" stroke:none;fill-rule:evenodd;fill:rgb(85.099792%,25.489807%,18.818665%);fill-opacity:1;" d="M 49.386719 50.523438 C 56.96875 50.523438 63.152344 44.414062 63.152344 36.921875 C 63.152344 29.429688 56.96875 23.320312 49.386719 23.320312 C 41.804688 23.320312 35.621094 29.429688 35.621094 36.921875 C 35.621094 44.414062 41.804688 50.523438 49.386719 50.523438 Z M 49.386719 50.523438 "/>
</g>
<g clip-path="url(#clip27)" clip-rule="nonzero">
<path style=" stroke:none;fill-rule:evenodd;fill:rgb(10.198975%,10.198975%,10.198975%);fill-opacity:1;" d="M 54.652344 45.078125 L 54.652344 43.6875 L 51.691406 43.6875 L 51.652344 42.894531 C 51.4375 43.101562 51.167969 43.214844 50.859375 43.277344 L 50.707031 41.28125 L 51.121094 41.28125 L 51.078125 40.320312 L 54.550781 40.320312 L 56.097656 37.847656 C 56.695312 37.78125 57.277344 37.707031 57.835938 37.632812 L 58.765625 35.515625 C 48.417969 36.902344 30.808594 36.902344 20.460938 35.515625 L 21.386719 37.632812 C 21.949219 37.707031 22.527344 37.78125 23.125 37.847656 L 24.671875 40.320312 L 28.144531 40.320312 L 28.101562 41.28125 L 28.515625 41.28125 L 28.363281 43.277344 C 28.054688 43.214844 27.785156 43.101562 27.570312 42.894531 L 27.53125 43.6875 L 24.570312 43.6875 L 24.570312 45.078125 L 28.226562 45.078125 L 27.359375 56.546875 L 27.15625 56.546875 L 26.636719 61.273438 L 30.503906 61.273438 L 30.5625 56.546875 L 30.324219 56.546875 L 30.863281 45.078125 L 48.359375 45.078125 L 48.898438 56.546875 L 48.660156 56.546875 L 48.71875 61.273438 L 52.585938 61.273438 L 52.066406 56.546875 L 51.863281 56.546875 L 50.992188 45.078125 Z M 31.558594 40.320312 L 38.660156 40.320312 L 38.660156 43.6875 L 31.855469 43.6875 L 31.894531 42.894531 C 31.628906 43.125 31.308594 43.238281 30.949219 43.296875 L 31.042969 41.28125 L 31.515625 41.28125 Z M 47.664062 40.320312 L 47.710938 41.28125 L 48.179688 41.28125 L 48.277344 43.296875 C 47.914062 43.238281 47.59375 43.125 47.332031 42.894531 L 47.367188 43.683594 L 40.5625 43.683594 L 40.5625 40.320312 Z M 47.664062 40.320312 "/>
</g>
</g>
</svg>
